<?xml version="1.0" standalone="no"?>
<!DOCTYPE svg PUBLIC "-//W3C//DTD SVG 20010904//EN"
 "http://www.w3.org/TR/2001/REC-SVG-20010904/DTD/svg10.dtd">
<svg version="1.0" xmlns="http://www.w3.org/2000/svg"
 width="512.000000pt" height="512.000000pt" viewBox="0 0 512.000000 512.000000"
 preserveAspectRatio="xMidYMid meet">
<metadata>
Created by potrace 1.14, written by Peter Selinger 2001-2017
</metadata>
<g transform="translate(0.000000,512.000000) scale(0.100000,-0.100000)"
fill="#000000" stroke="none">
<path d="M1899 4798 c-90 -95 -207 -217 -259 -271 -52 -55 -113 -119 -135
-143 l-40 -44 0 -577 0 -577 35 -18 c58 -29 381 -182 451 -213 37 -17 72 -38
78 -47 10 -16 -10 -17 -292 -18 l-303 0 -53 57 c-41 45 -396 415 -457 477 -8
8 -11 140 -12 436 0 234 -1 440 -1 458 l-1 32 -150 0 -150 0 0 -517 1 -518
107 -111 c243 -251 480 -500 531 -555 40 -44 61 -59 81 -59 24 0 27 -3 22 -25
-3 -18 -11 -25 -27 -25 -15 0 -49 -29 -105 -87 -45 -49 -169 -178 -275 -288
-105 -110 -224 -234 -263 -275 l-72 -75 0 -517 0 -518 153 0 152 0 0 457 0
457 120 124 c66 69 164 171 217 226 l98 101 0 -137 c0 -111 3 -138 14 -138 8
0 17 -8 21 -17 5 -15 4 -16 -6 -5 -7 6 -17 12 -23 12 -5 0 1 -8 12 -19 23 -19
30 -37 10 -25 -6 4 -8 3 -5 -4 4 -5 17 -8 30 -5 16 3 18 2 8 -5 -15 -11 2 -27
18 -18 5 4 7 -4 3 -16 -4 -16 -2 -20 10 -16 8 4 15 1 16 -5 0 -7 1 -225 2
-486 l1 -474 83 -86 c46 -47 103 -106 126 -131 288 -306 391 -410 403 -410 7
0 59 45 116 99 92 86 103 100 90 113 -8 8 -93 98 -189 199 -96 101 -208 217
-247 259 -72 74 -72 76 -73 130 -1 89 -1 661 -1 708 l1 42 235 0 c181 0 235 3
235 13 0 8 3 7 10 -3 8 -13 12 -12 27 4 16 18 16 19 1 7 -10 -8 -18 -9 -18 -3
0 13 29 24 43 15 7 -4 8 0 4 11 -4 10 -3 15 3 11 6 -3 10 -1 10 5 0 6 5 8 10
5 6 -3 10 -1 10 6 0 8 5 8 18 -2 14 -11 15 -11 5 1 -18 19 -16 33 2 26 13 -5
14 -2 4 15 -9 17 -8 20 2 14 9 -6 11 -2 7 12 -4 17 -1 20 16 17 11 -2 15 -1 8
2 -10 5 -10 9 0 22 10 12 10 14 1 8 -7 -4 -13 -2 -13 3 0 6 5 11 11 11 5 0 8
4 4 9 -3 5 0 13 5 16 8 5 5 14 -7 28 -10 11 -13 17 -7 14 15 -9 15 43 0 62 -8
12 -8 13 2 7 16 -9 16 6 0 23 -10 11 -10 13 0 7 16 -9 16 6 0 23 -10 11 -10
13 0 7 16 -9 16 6 0 23 -9 10 -9 12 -1 7 7 -4 11 0 11 11 0 10 0 23 2 28 5 21
0 36 -11 29 -6 -3 -4 5 5 19 16 23 16 26 1 41 -10 10 -12 16 -4 16 8 0 8 5 -2
17 -12 15 -12 16 3 11 11 -5 15 -2 13 10 -2 9 -4 21 -4 25 -1 5 -5 6 -9 3 -5
-3 -9 1 -9 9 0 8 4 12 9 9 4 -3 8 2 8 12 0 11 6 15 20 11 11 -3 20 0 20 5 0 6
6 5 15 -2 12 -10 15 -10 15 1 0 11 2 11 10 -1 8 -12 10 -12 10 -1 0 11 3 11
15 1 8 -7 15 -8 15 -3 0 10 60 8 88 -2 6 -2 12 1 12 7 0 6 6 5 17 -3 15 -12
16 -12 10 6 -7 20 -7 20 8 1 8 -11 15 -15 15 -9 0 13 25 11 37 -2 4 -4 2 -5
-6 0 -10 6 -12 4 -6 -5 6 -10 11 -9 21 4 8 12 14 14 19 6 6 -9 9 -9 14 -1 5 7
12 2 21 -14 7 -14 17 -25 22 -25 5 0 6 -5 3 -10 -5 -8 -12 -7 -23 2 -15 12
-16 11 -3 -4 7 -10 10 -18 5 -18 -5 0 -3 -4 5 -9 12 -8 13 -12 1 -25 -11 -14
-10 -16 6 -10 18 7 18 7 0 -15 -13 -14 -15 -20 -5 -16 11 4 14 -7 14 -59 0
-63 -1 -64 -19 -48 -18 16 -18 16 -5 -5 8 -13 18 -23 24 -23 5 0 3 -5 -5 -10
-12 -8 -12 -10 -1 -10 11 0 11 -3 0 -17 -12 -15 -12 -16 4 -10 10 4 16 3 12
-2 -3 -5 -1 -13 5 -16 8 -5 7 -12 -2 -23 -11 -13 -10 -15 4 -9 12 4 15 2 11
-9 -3 -9 1 -14 12 -14 9 0 13 -4 10 -10 -3 -5 -1 -10 6 -10 8 0 7 -5 -2 -17
-13 -15 -12 -15 10 -4 13 7 21 9 18 4 -3 -5 3 -17 14 -26 10 -9 19 -12 19 -7
0 6 5 10 12 10 6 0 9 -3 5 -6 -3 -4 0 -13 8 -20 15 -15 29 -19 21 -6 -2 4 4 8
15 8 10 0 19 -3 19 -6 0 -10 39 -9 46 1 4 6 10 5 17 -4 7 -7 74 -42 150 -77
124 -57 137 -66 137 -89 1 -81 1 -539 0 -671 l0 -155 -83 -86 c-224 -233 -413
-434 -424 -449 -11 -15 1 -29 89 -111 55 -52 107 -96 115 -97 8 -2 22 6 32 17
15 17 109 116 389 410 30 31 85 88 123 128 l69 72 0 552 c0 406 3 556 11 563
9 8 10 7 4 -4 -7 -12 -6 -13 6 -3 12 10 18 10 28 0 11 -10 11 -8 1 11 -11 23
-11 23 12 11 20 -11 21 -10 10 3 -10 13 -9 15 13 10 15 -2 25 0 25 7 0 7 -6 9
-12 5 -7 -4 -2 5 12 20 13 14 29 25 36 22 7 -3 10 5 8 20 -2 20 1 24 15 19 11
-3 18 0 18 9 0 8 -5 13 -11 12 -6 -2 -8 -1 -3 1 4 3 5 9 1 14 -3 5 -2 9 1 9 7
0 54 -47 255 -257 l115 -119 0 -457 0 -457 152 0 153 0 0 518 0 517 -77 80
c-42 44 -160 168 -263 275 -103 107 -217 227 -253 265 l-66 70 -1 61 c0 57 3
64 36 100 45 48 382 399 521 543 l102 106 1 518 0 517 -150 0 c-113 0 -150 -3
-151 -12 0 -7 -1 -214 -2 -460 -2 -433 -3 -447 -22 -466 -11 -10 -92 -94 -180
-187 -277 -290 -295 -307 -310 -295 -10 8 -15 8 -21 -1 -5 -9 -11 -7 -20 6
-12 16 -16 16 -31 4 -11 -9 -14 -10 -9 -1 8 14 -19 12 -43 -2 -9 -6 -12 -5 -8
1 4 6 0 14 -9 17 -8 3 -12 2 -9 -3 3 -5 1 -12 -5 -16 -5 -3 -10 -1 -10 6 0 9
-3 9 -14 0 -11 -9 -16 -9 -22 0 -5 8 -3 9 6 4 9 -5 11 -4 6 4 -6 9 -11 9 -22
0 -8 -6 -14 -8 -14 -4 0 4 -6 2 -14 -4 -11 -9 -16 -9 -22 0 -5 8 -3 9 6 4 9
-5 11 -4 6 4 -4 6 -13 8 -19 4 -18 -11 -36 -12 -42 -3 -3 5 -12 7 -20 4 -8 -4
-12 -11 -8 -18 5 -8 2 -7 -8 1 -15 12 -57 12 -77 -1 -6 -3 -14 -1 -18 5 -5 8
-3 9 6 4 9 -5 11 -4 6 4 -6 9 -11 9 -22 0 -8 -6 -14 -8 -14 -4 0 4 -8 1 -17
-6 -14 -12 -16 -12 -8 0 6 11 4 13 -8 8 -10 -4 -24 -10 -34 -14 -10 -4 -14 -2
-10 4 7 11 25 20 272 137 88 42 176 84 195 94 l35 18 1 569 c0 328 -3 578 -9
589 -5 10 -48 59 -97 110 -48 50 -105 109 -126 132 -246 260 -370 384 -380
382 -6 -2 -57 -47 -113 -100 l-101 -97 47 -49 c90 -93 218 -227 348 -364 l129
-138 1 -422 0 -422 -131 -63 c-72 -35 -136 -63 -143 -63 -7 0 -8 8 -1 25 5 14
7 26 5 26 -3 1 -10 2 -16 3 -14 1 -29 37 -22 49 3 5 -4 4 -17 -3 -20 -11 -21
-10 -10 10 8 15 8 20 1 16 -6 -4 -11 -2 -11 3 0 6 -7 11 -16 11 -8 0 -13 4
-10 9 3 5 -1 12 -10 15 -8 3 -12 2 -9 -3 3 -5 0 -13 -6 -17 -8 -4 -9 -3 -5 4
4 7 2 12 -4 12 -6 0 -9 4 -5 9 3 5 1 12 -5 16 -5 3 -10 0 -10 -7 0 -10 -2 -11
-8 0 -13 20 -748 13 -744 -7 2 -11 0 -12 -11 -3 -11 9 -18 8 -32 -8 -10 -11
-14 -20 -9 -20 5 0 1 -5 -9 -11 -9 -5 -22 -7 -28 -3 -8 4 -8 1 0 -14 10 -19 9
-20 -11 -17 -23 4 -23 4 -3 -12 16 -12 16 -14 3 -10 -10 3 -20 2 -23 -3 -4 -6
-1 -10 5 -10 6 0 8 -5 5 -10 -4 -6 -10 -8 -15 -5 -5 3 -12 0 -16 -6 -4 -7 -3
-9 3 -6 6 4 14 0 17 -8 12 -34 -28 -24 -151 35 -70 34 -130 64 -133 66 -2 3
-4 192 -5 421 0 371 2 419 16 437 9 12 43 49 75 82 144 151 355 373 392 413
l42 45 -103 97 c-56 54 -107 98 -113 99 -6 0 -85 -77 -175 -172z m261 -1388
c0 -5 -5 -10 -11 -10 -5 0 -7 5 -4 10 3 6 8 10 11 10 2 0 4 -4 4 -10z m644
-1036 c5 -14 4 -15 -9 -4 -17 14 -19 20 -6 20 5 0 12 -7 15 -16z m-399 -123
c3 -5 2 -12 -3 -15 -5 -3 -9 1 -9 9 0 17 3 19 12 6z"/>
<path d="M2780 2219 c0 -5 5 -7 10 -4 6 3 10 8 10 11 0 2 -4 4 -10 4 -5 0 -10
-5 -10 -11z"/>
<path d="M2779 2183 c-13 -16 -12 -17 4 -4 16 13 21 21 13 21 -2 0 -10 -8 -17
-17z"/>
<path d="M2796 2042 c-3 -5 1 -9 9 -9 8 0 12 4 9 9 -3 4 -7 8 -9 8 -2 0 -6 -4
-9 -8z"/>
<path d="M3785 1969 c-4 -6 -4 -13 -1 -16 3 -4 6 -1 6 6 0 7 5 9 12 5 7 -4 8
-3 4 4 -9 15 -13 15 -21 1z"/>
</g>
</svg>
